<mxfile host="app.diagrams.net" modified="2021-03-09T07:30:38.780Z" agent="5.0 (Macintosh; Intel Mac OS X 11_0_1) AppleWebKit/537.36 (KHTML, like Gecko) Chrome/88.0.4324.192 Safari/537.36" etag="KtFzLqjPXQpZiGWBVLNa" version="14.4.4" type="github">
  <diagram id="v0UE930JJ51b64WdhFTB" name="Page-1">
    <mxGraphModel dx="900" dy="621" grid="1" gridSize="10" guides="1" tooltips="1" connect="1" arrows="1" fold="1" page="1" pageScale="1" pageWidth="827" pageHeight="1169" math="0" shadow="0">
      <root>
        <mxCell id="0" />
        <mxCell id="1" parent="0" />
        <mxCell id="9adwoYlA66B2ADdjBk8U-1" value="提煤单" style="rounded=0;whiteSpace=wrap;html=1;" vertex="1" parent="1">
          <mxGeometry x="400" y="280" width="120" height="60" as="geometry" />
        </mxCell>
        <mxCell id="9adwoYlA66B2ADdjBk8U-3" value="司机" style="shape=umlActor;verticalLabelPosition=bottom;verticalAlign=top;html=1;outlineConnect=0;" vertex="1" parent="1">
          <mxGeometry x="60" y="70" width="30" height="60" as="geometry" />
        </mxCell>
        <mxCell id="9adwoYlA66B2ADdjBk8U-4" value="矿管员" style="shape=umlActor;verticalLabelPosition=bottom;verticalAlign=top;html=1;outlineConnect=0;" vertex="1" parent="1">
          <mxGeometry x="310" y="80" width="30" height="60" as="geometry" />
        </mxCell>
        <mxCell id="9adwoYlA66B2ADdjBk8U-5" value="车队派车人" style="shape=umlActor;verticalLabelPosition=bottom;verticalAlign=top;html=1;outlineConnect=0;" vertex="1" parent="1">
          <mxGeometry x="560" y="80" width="30" height="60" as="geometry" />
        </mxCell>
        <mxCell id="9adwoYlA66B2ADdjBk8U-6" value="车辆管理" style="rounded=0;whiteSpace=wrap;html=1;" vertex="1" parent="1">
          <mxGeometry x="100" y="290" width="120" height="60" as="geometry" />
        </mxCell>
      </root>
    </mxGraphModel>
  </diagram>
</mxfile>
